<?xml version="1.0" encoding="UTF-8" standalone="no"?>
<!-- Created with Inkscape (http://www.inkscape.org/) -->

<svg
   xmlns:dc="http://purl.org/dc/elements/1.1/"
   xmlns:cc="http://creativecommons.org/ns#"
   xmlns:rdf="http://www.w3.org/1999/02/22-rdf-syntax-ns#"
   xmlns:svg="http://www.w3.org/2000/svg"
   xmlns="http://www.w3.org/2000/svg"
   xmlns:sodipodi="http://sodipodi.sourceforge.net/DTD/sodipodi-0.dtd"
   xmlns:inkscape="http://www.inkscape.org/namespaces/inkscape"
   width="200"
   height="200"
   id="svg5151"
   version="1.1"
   inkscape:version="0.48.5 r10040"
   sodipodi:docname="New document 3">
  <defs
     id="defs5153" />
  <sodipodi:namedview
     id="base"
     pagecolor="#ffffff"
     bordercolor="#666666"
     borderopacity="1.0"
     inkscape:pageopacity="0.0"
     inkscape:pageshadow="2"
     inkscape:zoom="0.35"
     inkscape:cx="375"
     inkscape:cy="520"
     inkscape:document-units="px"
     inkscape:current-layer="layer1"
     showgrid="false"
     inkscape:window-width="1366"
     inkscape:window-height="706"
     inkscape:window-x="-8"
     inkscape:window-y="-8"
     inkscape:window-maximized="1" />
  <metadata
     id="metadata5156">
    <rdf:RDF>
      <cc:Work
         rdf:about="">
        <dc:format>image/svg+xml</dc:format>
        <dc:type
           rdf:resource="http://purl.org/dc/dcmitype/StillImage" />
        <dc:title></dc:title>
      </cc:Work>
    </rdf:RDF>
  </metadata>
  <g
     inkscape:label="Layer 1"
     inkscape:groupmode="layer"
     id="layer1"
     transform="translate(0,-852.36218)">
    <g
       transform="translate(-425.71428,635.35715)"
       id="g5159">
      <g
         id="g5161"
         transform="translate(380,-210)">
        <path
           sodipodi:nodetypes="cccccccc"
           inkscape:connector-curvature="0"
           id="path5163"
           d="m 110,487.36218 0,85 55,0 0,-5 10,0 0,-5 0,-75 z"
           style="fill:#ddff55;stroke:none" />
        <path
           style="fill:#7e1c13;fill-opacity:1;fill-rule:nonzero;stroke:none"
           d="m 105,477.36218 0,5 0,95 0,5 5,0 55,0 5,0 10,0 5,0 0,-5 0,-95 0,-5 -5,0 -70,0 z m 5,5 70,0 0,80 -5,0 0,5 5,0 0,10 -10,0 0,-5 -5,0 0,5 -55,0 z m 60,90 5,0 0,-5 -5,0 z"
           id="path5165"
           inkscape:connector-curvature="0"
           sodipodi:nodetypes="ccccccccccccccccccccccccccccccccc" />
        <path
           sodipodi:nodetypes="ccccccccccccccccccccccccccccccccccccccccccccccccccccccc"
           inkscape:connector-curvature="0"
           id="path5167"
           transform="translate(0,252.36218)"
           d="m 110,230 0,15 0,35 0,5 0,15 0,5 0,15 0,5 55,0 0,-5 -50,0 0,-15 0,-5 5,0 0,-5 -5,0 0,-10 0,-5 5,0 0,-10 -5,0 0,-20 5,0 0,-5 -5,0 0,-10 60,0 0,20 -50,0 0,5 50,0 0,5 -50,0 0,5 50,0 0,30 -50,0 0,5 50,0 0,5 5,0 0,-75 0,-5 -5,0 z m 65,80 -5,0 0,5 5,0 z m -5,5 -5,0 0,5 5,0 z"
           style="fill:#aad400;fill-opacity:1;fill-rule:nonzero;stroke:none" />
        <rect
           style="fill:#7e1c13;fill-opacity:1;fill-rule:nonzero;stroke:none"
           id="rect5169"
           width="15"
           height="5"
           x="100"
           y="497.36218" />
        <rect
           style="fill:#7e1c13;fill-opacity:1;fill-rule:nonzero;stroke:none"
           id="rect5171"
           width="15"
           height="5"
           x="100"
           y="507.36218" />
        <rect
           style="fill:#7e1c13;fill-opacity:1;fill-rule:nonzero;stroke:none"
           id="rect5173"
           width="5"
           height="5"
           x="95"
           y="502.36218" />
        <rect
           style="fill:#7e1c13;fill-opacity:1;fill-rule:nonzero;stroke:none"
           id="rect5175"
           width="5"
           height="5"
           x="115"
           y="502.36218" />
        <rect
           y="522.36218"
           x="100"
           height="5"
           width="15"
           id="rect5177"
           style="fill:#7e1c13;fill-opacity:1;fill-rule:nonzero;stroke:none" />
        <rect
           y="532.36218"
           x="100"
           height="5"
           width="15"
           id="rect5179"
           style="fill:#7e1c13;fill-opacity:1;fill-rule:nonzero;stroke:none" />
        <rect
           y="527.36218"
           x="95"
           height="5"
           width="5"
           id="rect5181"
           style="fill:#7e1c13;fill-opacity:1;fill-rule:nonzero;stroke:none" />
        <rect
           y="527.36218"
           x="115"
           height="5"
           width="5"
           id="rect5183"
           style="fill:#7e1c13;fill-opacity:1;fill-rule:nonzero;stroke:none" />
        <rect
           style="fill:#7e1c13;fill-opacity:1;fill-rule:nonzero;stroke:none"
           id="rect5185"
           width="15"
           height="5"
           x="100"
           y="547.36218" />
        <rect
           style="fill:#7e1c13;fill-opacity:1;fill-rule:nonzero;stroke:none"
           id="rect5187"
           width="15"
           height="5"
           x="100"
           y="557.36218" />
        <rect
           style="fill:#7e1c13;fill-opacity:1;fill-rule:nonzero;stroke:none"
           id="rect5189"
           width="5"
           height="5"
           x="95"
           y="552.36218" />
        <rect
           style="fill:#7e1c13;fill-opacity:1;fill-rule:nonzero;stroke:none"
           id="rect5191"
           width="5"
           height="5"
           x="115"
           y="552.36218" />
        <path
           style="fill:#e5ff80;fill-opacity:1;stroke:none"
           d="m 170,577.36218 0,-5 5,0 0,-5 5,0 0,10 z"
           id="path5193"
           inkscape:connector-curvature="0"
           sodipodi:nodetypes="ccccccc" />
        <path
           style="fill:#aad400;stroke:none"
           d="m 110,502.36218 5,0 0,5 -5,0 z"
           id="path5195"
           inkscape:connector-curvature="0" />
        <path
           style="fill:#aad400;stroke:none"
           d="m 110,527.36218 5,0 0,5 -5,0 z"
           id="path5197"
           inkscape:connector-curvature="0" />
        <path
           style="fill:#aad400;stroke:none"
           d="m 110,552.36218 5,0 0,5 -5,0 z"
           id="path5199"
           inkscape:connector-curvature="0" />
        <rect
           y="572.36218"
           x="110"
           height="5"
           width="55"
           id="rect5201"
           style="fill:#e6e6e6;fill-opacity:1;fill-rule:nonzero;stroke:none" />
        <rect
           ry="0"
           y="502.36218"
           x="100"
           height="5"
           width="15"
           id="rect5203"
           style="fill:#b3b3b3;fill-opacity:1;fill-rule:nonzero;stroke:none" />
        <rect
           style="fill:#b3b3b3;fill-opacity:1;fill-rule:nonzero;stroke:none"
           id="rect5205"
           width="15"
           height="5"
           x="100"
           y="527.36218"
           ry="0" />
        <rect
           ry="0"
           y="552.36218"
           x="100"
           height="5"
           width="15"
           id="rect5207"
           style="fill:#b3b3b3;fill-opacity:1;fill-rule:nonzero;stroke:none" />
        <path
           style="fill:#e6e6e6;fill-opacity:1;stroke:none"
           d="m 175,577.36218 0,-5 5,0 0,5 z"
           id="path5209"
           inkscape:connector-curvature="0" />
      </g>
    </g>
  </g>
</svg>
